<?xml version="1.0" standalone="no"?>
<!DOCTYPE svg PUBLIC "-//W3C//DTD SVG 20010904//EN"
 "http://www.w3.org/TR/2001/REC-SVG-20010904/DTD/svg10.dtd">
<svg version="1.0" xmlns="http://www.w3.org/2000/svg"
 width="512.000000pt" height="512.000000pt" viewBox="0 0 512.000000 512.000000"
 preserveAspectRatio="xMidYMid meet">
<metadata>
Created by potrace 1.11, written by Peter Selinger 2001-2013
</metadata>
<g transform="translate(0.000000,512.000000) scale(0.100000,-0.100000)"
fill="#000000" stroke="none">
<path d="M2739 5018 c-6 -31 -2 -272 7 -495 4 -108 3 -183 -2 -183 -5 -1 -50
-3 -101 -6 l-91 -6 -42 56 c-44 59 -80 77 -105 56 -9 -7 -28 -35 -43 -62 -26
-48 -28 -49 -62 -43 -241 42 -347 49 -501 33 -271 -28 -640 -195 -919 -417
-80 -64 -210 -189 -270 -260 -25 -30 -50 -59 -55 -65 -6 -6 -39 -51 -74 -99
-78 -109 -150 -244 -190 -361 -35 -98 -76 -292 -86 -401 -8 -87 -8 -304 -1
-367 3 -27 8 -69 11 -95 7 -61 23 -155 35 -213 6 -25 13 -55 15 -67 56 -266
129 -445 256 -634 170 -253 398 -464 694 -640 50 -30 102 -61 118 -68 15 -8
27 -18 27 -23 0 -5 4 -7 10 -3 5 3 26 -5 47 -18 21 -13 53 -30 71 -38 17 -8
32 -17 32 -21 0 -4 6 -5 13 -2 8 3 14 -2 14 -10 0 -8 -4 -13 -9 -10 -5 3 -18
-2 -29 -12 -10 -9 -19 -12 -19 -6 0 6 5 14 10 17 5 3 10 10 10 16 0 5 -9 0
-20 -11 -18 -18 -33 -24 -52 -21 -5 0 -8 -4 -8 -10 0 -5 -6 -7 -12 -3 -9 5 -8
2 1 -9 18 -23 11 -29 -12 -12 -18 13 -18 14 2 32 23 19 27 33 9 33 -6 0 -9 -3
-6 -6 4 -3 -2 -14 -13 -25 -11 -11 -16 -25 -12 -36 5 -15 3 -16 -8 -5 -16 14
-39 16 -39 2 0 -5 8 -7 18 -4 12 4 10 0 -7 -15 -27 -25 -49 -28 -30 -5 10 13
10 17 -1 24 -8 5 -18 6 -22 4 -12 -7 -10 -44 2 -44 7 0 7 -6 0 -20 -6 -11 -16
-20 -23 -20 -8 0 -6 4 3 10 13 9 13 11 0 20 -8 5 -19 10 -25 10 -5 0 -3 -4 5
-10 8 -5 11 -12 7 -16 -3 -4 -12 -2 -19 4 -9 7 -19 6 -32 -4 -11 -8 -15 -14
-10 -14 6 0 15 5 21 11 6 6 13 7 16 2 3 -4 -1 -14 -9 -21 -8 -7 -14 -10 -14
-6 0 4 -10 -6 -21 -20 -17 -21 -24 -25 -30 -14 -5 7 -9 8 -9 2 0 -14 29 -52
31 -39 0 6 5 -1 10 -15 9 -25 9 -25 5 3 -2 19 2 31 15 37 23 13 29 13 29 0 0
-5 -7 -10 -15 -10 -8 0 -15 -4 -15 -10 0 -5 8 -7 18 -3 14 5 15 3 5 -8 -7 -7
-13 -18 -13 -24 0 -5 5 -2 11 8 5 9 15 17 21 17 7 0 6 -6 -2 -15 -7 -9 -10
-18 -7 -22 4 -3 9 2 13 11 3 9 10 16 15 16 6 0 5 -10 -2 -21 -8 -15 -8 -19 0
-15 6 4 11 2 11 -3 0 -6 -4 -11 -10 -11 -15 0 -12 -12 11 -40 l21 -25 -16 27
c-9 15 -12 29 -6 33 5 3 7 19 5 36 -2 20 0 29 8 26 7 -2 12 -11 12 -20 0 -25
17 -16 44 23 18 27 19 31 5 20 -18 -14 -18 -14 -4 4 12 16 12 18 1 11 -9 -5
-12 -4 -7 3 3 6 3 13 -2 16 -5 3 -7 20 -6 38 2 48 3 50 15 42 8 -4 7 -9 -2
-15 -11 -7 -10 -12 5 -26 19 -17 19 -17 5 2 -13 18 -13 19 3 6 10 -7 15 -18
11 -25 -14 -22 -11 -35 8 -33 26 2 34 29 13 44 -10 7 -14 13 -10 13 5 0 3 7
-4 15 -10 12 -8 13 10 10 19 -4 20 -2 8 13 -12 16 -11 16 7 2 19 -14 19 -14 5
5 -14 19 -14 19 2 6 10 -7 15 -17 12 -22 -10 -16 9 -9 23 9 8 9 12 11 8 5 -4
-9 -1 -11 10 -6 12 4 13 8 5 13 -8 5 -7 9 5 13 10 4 14 3 9 -4 -4 -7 0 -9 14
-5 11 4 23 2 27 -4 3 -5 11 -10 17 -10 7 0 7 4 -1 13 -6 8 -8 17 -4 20 3 4 0
7 -7 7 -7 0 -10 3 -7 7 4 3 1 13 -5 20 -9 12 -9 14 3 13 27 -4 40 0 34 10 -4
6 5 5 19 -2 14 -6 26 -15 26 -20 0 -5 4 -7 9 -3 5 3 12 1 16 -5 4 -6 11 -7 17
-4 7 5 8 2 3 -6 -6 -9 -1 -10 16 -5 16 4 20 3 11 -3 -11 -7 -11 -10 2 -15 9
-4 16 -1 16 6 0 7 5 4 11 -6 14 -24 4 -34 -16 -17 -12 10 -19 10 -27 2 -7 -7
-16 -12 -22 -12 -5 0 -2 6 8 13 17 12 16 14 -13 14 -26 0 -29 -3 -18 -16 8 -9
8 -12 1 -8 -7 4 -15 0 -18 -9 -9 -24 -8 -26 15 -13 17 9 24 8 38 -7 15 -17 15
-17 -1 -5 -12 9 -22 10 -37 2 -19 -11 -41 2 -27 16 7 8 -13 33 -26 33 -6 0 -6
-6 1 -14 6 -7 9 -21 5 -30 -3 -9 -1 -16 5 -16 6 0 11 -5 11 -11 0 -8 -4 -8
-14 0 -12 10 -18 6 -32 -18 -10 -16 -21 -28 -26 -25 -4 3 -8 1 -8 -5 0 -20 19
-21 33 -1 12 17 16 18 32 6 11 -8 25 -12 32 -9 7 3 13 0 13 -6 0 -6 -5 -10
-11 -8 -6 1 -14 -4 -16 -11 -3 -7 -1 -12 4 -11 26 5 34 -2 27 -23 -7 -23 -7
-23 15 -4 16 15 18 21 9 27 -16 10 -21 59 -6 59 6 0 8 -3 5 -7 -4 -3 -1 -13 6
-21 9 -13 9 -14 0 -8 -20 11 -15 -2 8 -25 24 -24 60 -19 39 6 -7 9 -8 15 -2
15 5 0 12 -6 15 -14 3 -8 16 -12 31 -11 14 2 26 -1 26 -7 0 -5 -8 -7 -18 -4
-16 5 -19 1 -17 -24 2 -30 2 -30 -23 -14 -14 10 -21 11 -17 3 5 -8 4 -10 -4
-5 -6 4 -8 12 -5 18 5 8 1 9 -10 5 -10 -4 -20 -7 -22 -7 -2 0 -4 -4 -4 -10 0
-5 8 -7 18 -3 14 5 15 4 4 -8 -11 -12 -15 -11 -28 5 -10 14 -14 16 -14 5 0 -8
-3 -10 -8 -4 -11 15 -32 17 -32 3 0 -6 -6 -4 -13 7 -9 11 -19 15 -27 10 -9 -6
-11 -4 -5 5 5 9 4 11 -4 6 -6 -4 -9 -12 -6 -17 3 -5 -1 -6 -9 -3 -20 8 -20 -7
-1 -32 14 -17 15 -17 9 -1 -6 17 -5 18 15 6 11 -8 21 -20 21 -28 0 -11 4 -9
15 5 13 16 16 17 25 4 6 -9 10 -10 10 -3 0 7 -8 17 -17 22 -15 9 -15 10 -2 11
24 0 39 -21 29 -40 -6 -12 -5 -17 6 -17 8 0 13 7 12 15 -2 8 3 17 10 19 6 3
10 -1 9 -9 -2 -7 -2 -9 1 -5 2 4 10 3 17 -3 19 -16 54 -20 61 -8 4 7 2 8 -4 4
-13 -8 -16 6 -5 18 4 4 15 -3 24 -15 12 -16 18 -19 24 -9 5 9 4 11 -3 6 -11
-7 -17 6 -13 27 1 5 -3 6 -8 3 -5 -3 -11 1 -14 9 -5 11 -1 12 16 5 12 -4 21
-13 20 -19 -2 -6 5 -8 15 -4 9 3 14 3 10 -2 -4 -4 -3 -14 3 -22 9 -10 7 -13
-7 -13 -16 0 -16 -2 -4 -10 16 -10 33 7 22 24 -3 6 -7 24 -8 39 -2 21 1 27 11
23 8 -3 17 -1 20 4 6 10 5 11 -33 15 -23 2 -28 -21 -7 -38 6 -5 4 -7 -5 -4 -9
2 -15 15 -15 33 0 16 -3 34 -6 39 -4 6 -3 19 2 30 8 19 9 19 6 -1 -1 -11 1
-22 6 -22 20 -5 26 0 21 16 -5 14 -4 15 5 2 8 -11 7 -18 -4 -26 -27 -20 -16
-26 14 -8 17 10 27 22 24 27 -4 6 -1 7 7 2 10 -6 7 -12 -11 -26 -14 -11 -18
-19 -11 -19 22 0 59 34 55 50 -4 13 -3 13 6 0 8 -11 7 -18 -4 -26 -8 -6 -11
-15 -7 -19 4 -5 2 -5 -5 -1 -15 8 -38 -30 -23 -39 5 -3 10 1 10 10 0 11 5 15
15 11 8 -3 15 -1 15 4 0 6 5 10 11 10 8 0 8 -4 0 -14 -9 -11 -9 -20 -2 -34 6
-11 8 -22 5 -25 -14 -14 8 -27 27 -16 16 8 26 7 46 -6 20 -13 28 -14 37 -4 8
9 8 10 -1 5 -13 -7 -61 19 -55 29 2 3 1 11 -2 18 -3 7 -7 3 -11 -10 -4 -12
-13 -24 -21 -27 -17 -7 -18 6 -1 23 8 9 8 12 0 7 -18 -10 -21 17 -5 42 13 20
13 22 -4 22 -9 0 -14 3 -11 7 9 8 57 -17 57 -30 0 -5 -7 -4 -15 3 -8 7 -15 9
-15 4 0 -13 16 -36 25 -36 14 0 25 26 19 45 -3 9 0 17 6 17 6 0 8 -4 5 -10 -3
-5 -2 -10 3 -10 5 0 14 -11 20 -24 10 -22 9 -24 -16 -21 -23 2 -24 1 -9 -10 9
-6 14 -15 10 -18 -3 -4 -2 -7 4 -7 6 0 13 7 17 15 3 8 11 15 17 15 8 0 8 -4 1
-13 -8 -9 -8 -17 0 -27 8 -12 9 -12 4 2 -6 20 10 35 17 16 3 -10 9 -11 26 0
28 16 41 15 63 -5 11 -9 18 -11 18 -5 0 7 -5 12 -11 12 -5 0 -7 5 -4 10 9 15
37 -9 28 -24 -3 -6 3 -2 15 8 12 11 25 16 29 12 4 -3 -3 -13 -15 -22 -12 -8
-22 -19 -22 -25 0 -5 10 1 21 12 17 17 23 19 30 8 6 -10 9 -10 9 -2 0 7 9 17
19 22 15 8 20 7 25 -5 4 -12 2 -15 -9 -11 -8 4 -17 2 -20 -2 -9 -16 65 -4 83
12 20 18 37 23 28 8 -10 -16 23 -21 38 -6 16 17 27 10 19 -13 -4 -14 -3 -15 5
-2 8 10 8 18 0 27 -7 9 -7 13 0 13 6 0 15 -8 21 -17 8 -15 12 -16 22 -6 25 25
32 13 8 -13 -23 -26 -23 -26 -1 -13 12 8 22 17 22 22 0 4 10 1 23 -6 19 -12
30 -14 52 -8 3 0 1 10 -5 21 -8 14 -8 20 0 20 6 0 8 4 5 10 -3 5 0 7 9 4 18
-7 16 17 -4 42 -11 14 -7 12 18 -5 17 -12 32 -19 32 -15 0 3 6 1 14 -5 11 -9
15 -9 19 1 3 10 9 8 25 -6 17 -14 25 -16 35 -7 8 6 17 8 20 4 4 -3 7 -1 7 5 0
5 -5 13 -10 15 -6 3 -5 4 2 3 7 -1 15 -11 17 -21 2 -12 -1 -16 -12 -12 -8 3
-19 1 -25 -5 -8 -8 -16 -7 -28 3 -10 8 -15 9 -11 2 5 -8 1 -11 -13 -8 -13 3
-18 0 -14 -7 5 -7 2 -8 -6 -3 -9 6 -11 4 -5 -6 5 -8 4 -11 -1 -6 -5 5 -7 10
-4 11 7 4 -21 36 -31 36 -5 0 -3 -10 6 -23 8 -13 12 -27 8 -32 -5 -4 -2 -5 5
-1 6 4 12 3 12 -2 0 -6 7 -13 16 -16 13 -5 14 -4 6 7 -7 8 -9 17 -5 20 3 4 12
-1 20 -11 12 -16 13 -16 7 3 -5 19 -4 18 13 -2 12 -15 27 -21 43 -19 34 5 60
16 60 27 0 5 5 9 11 9 5 0 7 -4 4 -10 -3 -5 -1 -10 5 -10 17 0 6 25 -11 25 -8
0 -20 4 -28 9 -10 7 -12 6 -6 -4 5 -9 4 -11 -3 -6 -9 5 -9 13 -2 26 7 13 7 21
0 25 -5 3 -10 10 -10 16 0 5 10 -1 22 -13 13 -13 22 -26 21 -30 -2 -5 2 -8 7
-8 6 0 10 7 10 15 0 18 12 19 28 3 9 -9 12 -9 12 1 0 8 6 11 16 7 9 -4 24 -1
32 6 10 8 13 9 9 1 -4 -6 -1 -13 5 -16 10 -3 10 -8 -1 -18 -8 -8 -11 -9 -7 -2
4 8 0 11 -14 8 -11 -2 -20 1 -20 6 0 6 -5 7 -10 4 -6 -4 -8 -10 -5 -15 3 -4
-2 -13 -10 -20 -8 -7 -12 -16 -9 -21 3 -5 -3 -9 -12 -9 -10 0 -15 -3 -11 -6 7
-7 67 18 67 28 0 4 -7 4 -17 1 -11 -4 -14 -3 -9 5 11 18 22 14 41 -14 12 -19
14 -29 5 -39 -8 -9 -8 -15 0 -20 6 -4 9 -1 8 7 -2 7 3 12 11 10 11 -2 10 3 -3
23 -10 15 -15 29 -13 32 3 2 13 -7 22 -21 10 -14 22 -26 29 -26 7 0 6 4 -2 9
-11 6 -8 13 12 29 16 12 22 23 16 27 -5 3 -10 1 -10 -5 0 -6 -5 -8 -11 -4 -8
5 -6 10 5 16 9 5 13 14 10 20 -4 7 -2 8 4 4 7 -4 12 -2 12 3 0 6 5 11 11 11 8
0 7 -6 -2 -17 -12 -14 -12 -16 1 -11 9 3 24 0 35 -8 25 -18 36 -18 29 1 -4 8
-4 15 -1 15 3 0 7 -6 10 -14 4 -9 -5 -21 -20 -31 -23 -15 -25 -16 -20 -2 3 9
2 19 -4 22 -5 4 -8 1 -7 -7 2 -7 -3 -12 -11 -10 -16 3 -41 -16 -41 -32 0 -6 5
-4 10 6 11 18 50 14 50 -6 0 -6 6 -2 12 8 11 19 11 19 25 0 14 -18 15 -18 8 6
-7 23 -7 24 10 10 10 -8 20 -14 22 -12 3 2 7 1 11 -2 3 -3 -1 -6 -9 -6 -8 0
-20 -10 -28 -22 l-13 -21 27 21 c15 12 31 19 36 16 5 -3 18 0 29 6 15 8 20 8
20 -1 0 -7 3 -9 6 -6 4 4 1 13 -5 21 -7 8 -10 20 -6 27 5 8 1 8 -15 -1 -13 -7
-20 -8 -16 -2 4 7 -1 9 -14 7 -11 -2 -18 0 -16 4 3 4 -1 8 -9 8 -8 0 -11 -5
-8 -11 3 -6 0 -5 -8 3 -11 10 -11 15 -1 18 6 3 9 10 5 16 -4 7 1 6 10 -2 14
-11 20 -11 32 -1 10 9 15 9 15 1 0 -6 -4 -11 -10 -11 -18 0 -10 -16 9 -17 15
-1 18 4 16 23 -1 14 0 22 3 19 3 -2 12 1 20 8 12 9 11 6 -2 -15 -11 -17 -13
-28 -7 -33 6 -3 11 0 11 8 0 8 7 21 17 28 15 13 15 12 4 -9 -6 -12 -9 -28 -5
-34 4 -6 3 -8 -4 -4 -24 14 -21 -14 4 -33 21 -17 29 -18 45 -8 10 6 19 15 19
19 0 4 9 5 20 3 26 -5 34 10 13 26 -14 12 -16 12 -8 0 6 -10 4 -12 -4 -7 -7 5
-18 1 -25 -10 -17 -22 -53 -28 -53 -9 0 10 7 13 17 10 22 -7 46 20 33 37 -14
18 -23 59 -12 52 5 -3 9 -15 9 -26 0 -21 0 -21 27 3 20 18 24 19 13 4 -8 -11
-19 -23 -25 -27 -5 -4 -8 -8 -5 -9 3 0 13 -2 23 -4 12 -2 17 1 13 10 -3 9 0
12 10 8 10 -4 12 -9 4 -18 -8 -9 -6 -14 6 -19 9 -3 20 -4 24 -1 5 3 11 1 15
-5 3 -5 1 -11 -4 -11 -14 -2 -21 -4 -43 -12 -10 -4 -25 -9 -34 -12 -9 -3 -15
-8 -12 -11 3 -2 18 1 34 7 34 14 84 19 84 8 0 -4 -6 -10 -12 -13 -7 -2 -4 -4
8 -2 12 1 33 9 47 19 30 20 47 23 29 5 -7 -7 -12 -17 -12 -23 0 -5 5 -2 11 7
5 10 17 15 27 12 13 -5 14 -4 3 4 -7 5 -9 12 -4 15 10 6 45 -28 37 -35 -2 -3
3 -5 11 -5 8 0 15 4 15 9 0 4 -5 8 -12 8 -6 0 -1 12 13 26 15 16 19 24 9 22
-8 -2 -14 3 -12 10 1 8 -3 12 -10 9 -7 -2 -12 -10 -10 -17 2 -10 -1 -10 -14 1
-12 9 -15 9 -10 2 4 -7 2 -13 -3 -13 -6 0 -11 6 -11 13 0 8 -3 7 -10 -3 -5 -8
-18 -16 -29 -16 -11 -1 -18 3 -15 8 4 6 -2 5 -13 -1 -11 -6 -23 -7 -27 -4 -3
3 -6 1 -6 -6 0 -7 -5 -9 -11 -5 -8 5 -8 9 1 14 9 5 9 9 1 14 -6 4 -11 3 -11
-1 0 -5 -10 -9 -22 -10 -13 0 -17 1 -10 4 6 3 10 8 7 13 -3 4 2 13 10 20 18
15 20 34 3 24 -6 -4 -8 -3 -5 4 4 5 15 9 25 8 9 -2 21 2 25 8 6 7 7 7 5 -2 -2
-8 -6 -12 -10 -10 -7 4 -48 -45 -42 -51 2 -2 14 4 26 15 12 10 18 14 15 8 -4
-8 1 -12 16 -12 12 0 32 -2 45 -5 16 -4 22 -2 19 6 -2 7 -13 11 -23 10 -10 -1
-13 0 -6 3 6 3 12 10 12 15 0 6 -4 8 -9 5 -5 -3 -16 5 -25 19 -19 28 -20 35
-6 35 5 0 9 -3 8 -8 -3 -14 14 -42 23 -37 4 3 13 -4 19 -15 6 -11 15 -18 20
-15 6 3 7 0 4 -8 -3 -8 2 -14 11 -14 10 0 13 6 9 19 -3 10 0 18 6 18 6 0 8 -4
5 -10 -7 -11 28 -14 38 -3 4 3 2 12 -4 20 -8 8 -8 13 -1 13 6 0 13 -6 16 -12
5 -11 7 -11 12 0 3 6 10 12 15 12 5 0 4 -9 -3 -19 -7 -11 -16 -19 -21 -18 -5
1 -11 -3 -14 -9 -7 -20 31 -10 44 11 7 11 12 16 13 11 0 -5 7 -3 15 4 8 6 18
9 24 6 5 -3 11 0 14 6 2 7 7 10 11 7 3 -3 -3 -15 -14 -26 -16 -18 -17 -22 -4
-27 21 -8 26 -8 20 2 -2 4 0 14 5 22 8 12 12 12 16 2 2 -6 9 -10 14 -6 5 3 0
17 -11 31 -11 14 -20 31 -20 37 0 6 6 2 12 -9 18 -30 38 -48 46 -40 4 3 -2 13
-12 21 -11 8 -15 14 -9 14 17 0 34 -26 27 -44 -3 -9 -10 -14 -14 -11 -4 3 -13
-2 -20 -10 -7 -8 -8 -15 -3 -15 5 0 10 -7 10 -15 0 -9 -5 -14 -11 -12 -6 3
-10 10 -9 16 2 6 -2 11 -7 11 -6 0 -10 -5 -10 -11 0 -8 -5 -8 -15 1 -8 7 -15
9 -15 4 0 -5 -4 -2 -10 6 -5 9 -5 19 2 27 14 17 -2 16 -24 -1 -20 -15 -24 -27
-7 -23 6 1 14 -5 16 -13 4 -12 3 -12 -5 -1 -7 9 -12 10 -16 2 -4 -6 -12 -8
-18 -5 -7 4 -8 2 -4 -4 4 -6 14 -8 24 -5 15 6 15 5 3 -11 -14 -17 -16 -17 -28
1 -12 15 -15 16 -23 3 -5 -8 -9 -22 -9 -30 1 -11 3 -10 6 3 5 20 14 22 32 5
11 -11 14 -10 18 0 3 6 9 10 14 6 5 -3 8 0 7 7 -2 6 2 13 9 16 8 3 10 -4 7
-22 l-5 -27 24 28 c16 18 26 23 31 16 4 -7 2 -12 -3 -12 -6 0 -11 -8 -11 -17
0 -15 2 -14 16 3 11 13 17 15 20 7 3 -7 10 -13 16 -13 6 0 6 6 -2 15 -15 18 1
20 18 3 7 -7 12 -8 12 -2 0 5 9 10 19 11 14 1 18 -3 14 -15 -4 -14 -3 -14 5
-2 6 8 8 18 6 22 -3 4 -1 8 4 8 6 0 12 -7 16 -15 3 -8 0 -15 -6 -15 -6 0 -9
-3 -6 -6 8 -7 48 18 48 30 0 4 -7 3 -15 -4 -8 -7 -15 -9 -15 -4 0 13 16 36 25
36 13 0 25 -26 19 -44 -4 -12 1 -16 15 -15 14 1 17 5 11 11 -15 15 -12 30 3
18 8 -7 16 -6 26 5 12 13 11 14 -7 9 -21 -7 -25 6 -8 32 13 21 -2 27 -22 9
-10 -10 -22 -14 -25 -10 -4 3 -7 1 -7 -4 0 -12 -18 -12 -37 0 -12 7 -16 3 -15
-13 0 -3 -8 -6 -18 -6 -10 0 -16 4 -14 8 3 5 0 7 -8 6 -7 -2 -11 3 -9 12 2 8
3 24 3 34 -1 23 13 51 39 77 27 27 24 12 -6 -23 -14 -16 -25 -37 -25 -46 1
-15 2 -15 15 2 12 16 17 17 30 6 8 -7 16 -11 18 -9 20 36 25 48 20 53 -9 9
-25 7 -19 -2 9 -15 -9 -31 -24 -22 -13 8 -12 10 2 10 10 0 17 3 17 7 -5 28 1
35 18 22 15 -12 16 -12 10 4 -4 10 -7 21 -7 23 0 3 -4 2 -10 -1 -6 -4 -7 1 -3
12 6 16 5 17 -12 3 -11 -8 -28 -23 -39 -32 -10 -10 -24 -14 -29 -11 -6 4 -8 0
-4 -11 10 -25 -1 -40 -18 -26 -8 7 -20 8 -27 4 -10 -6 -9 -3 1 9 13 16 14 16
28 0 14 -17 14 -17 9 1 -7 22 11 49 27 39 6 -4 8 0 4 11 -4 9 -3 15 2 11 12
-7 42 5 36 15 -2 4 -19 6 -36 4 -25 -3 -30 -1 -25 12 4 9 1 14 -6 12 -6 -2
-13 -14 -14 -26 -3 -17 0 -20 14 -15 9 3 4 -6 -13 -20 -16 -14 -32 -24 -34
-21 -3 3 2 10 12 15 13 8 15 14 7 30 -6 10 -7 19 -3 19 10 0 -19 20 -30 20 -4
0 -3 -9 3 -20 7 -14 7 -20 0 -20 -5 0 -10 7 -10 15 0 8 -5 15 -11 15 -5 0 -7
-6 -3 -12 6 -10 4 -10 -8 0 -13 10 -17 10 -22 0 -3 -7 -3 -2 0 10 6 24 6 24
-23 7 l-28 -17 24 19 c15 13 21 25 16 33 -6 9 -4 11 5 5 9 -6 11 -4 5 4 -6 10
-2 10 16 0 26 -14 101 -23 79 -9 -8 5 -4 8 14 7 24 -2 25 -3 9 -16 -16 -12
-17 -13 -1 -8 10 3 20 1 24 -5 4 -6 3 -8 -3 -5 -5 3 -10 0 -10 -6 0 -7 10 -14
21 -15 11 0 16 2 11 6 -6 4 -11 12 -12 18 -3 14 41 12 59 -4 8 -6 18 -9 22 -5
4 4 4 -1 0 -12 -7 -20 -6 -20 9 0 13 16 18 18 29 7 11 -11 10 -12 -4 -7 -20 8
-25 -10 -6 -21 7 -4 8 -3 4 4 -5 8 -2 10 8 6 23 -9 20 14 -4 28 -22 14 -27 29
-7 25 6 -1 17 -11 24 -22 6 -11 15 -19 19 -17 5 2 10 -2 12 -10 3 -11 2 -11
-6 0 -7 11 -10 11 -15 -3 -5 -10 -3 -14 5 -9 7 5 8 2 3 -7 -5 -8 -5 -11 0 -7
4 4 15 2 23 -5 13 -10 14 -9 7 2 -5 10 -4 12 3 7 18 -11 14 -27 -4 -24 -10 2
-19 -2 -21 -9 -3 -8 3 -11 16 -8 25 5 39 -13 17 -21 -13 -5 -12 -9 7 -26 12
-11 16 -16 8 -12 -9 4 -12 3 -7 -4 4 -6 14 -9 24 -6 14 5 14 4 2 -4 -9 -7 -18
-8 -26 -1 -9 7 -12 4 -10 -15 2 -14 -3 -27 -10 -30 -17 -6 -17 -1 -4 24 8 14
6 18 -7 16 -9 -2 -19 -9 -21 -17 -3 -11 -1 -11 8 1 10 13 11 13 7 0 -2 -8 -10
-14 -16 -13 -20 5 -12 -15 9 -20 14 -4 18 -11 14 -24 -4 -13 -3 -15 4 -4 7 9
11 10 16 2 5 -8 17 -3 37 13 17 15 37 23 47 20 13 -5 14 -4 3 4 -7 5 -18 16
-23 23 -8 11 -9 10 -5 -3 3 -9 0 -19 -8 -21 -16 -7 -25 1 -25 22 0 13 2 13 9
3 6 -10 10 -8 14 8 3 12 10 19 16 16 5 -3 16 1 24 9 12 11 17 12 21 2 3 -6 3
-2 0 10 -4 17 -2 21 9 17 25 -9 29 14 7 36 -12 12 -20 16 -19 8 3 -25 -1 -39
-10 -34 -5 4 -8 17 -6 31 1 14 -4 33 -12 42 -11 14 -13 15 -12 3 3 -28 -1 -41
-10 -35 -6 3 -8 15 -6 26 2 11 1 27 -2 35 -4 12 -8 12 -21 2 -13 -11 -15 -10
-10 3 5 13 2 16 -15 13 -12 -2 -16 -1 -9 2 9 4 7 11 -9 25 -28 24 -37 25 -16
1 18 -20 13 -32 -12 -32 -14 0 -14 2 -1 10 13 8 12 10 -3 10 -12 0 -16 4 -11
13 6 9 4 9 -8 -1 -14 -11 -18 -10 -27 7 -15 27 -14 31 4 25 8 -4 15 -2 15 4 0
6 -8 9 -17 8 -10 -2 -18 -10 -18 -19 0 -9 -6 -22 -14 -29 -11 -11 -12 -9 -6
12 5 19 4 21 -4 10 -7 -10 -11 -11 -11 -2 0 6 -7 12 -15 12 -8 0 -15 5 -15 10
0 6 -5 10 -12 10 -9 0 -9 -3 0 -12 18 -18 15 -33 -3 -18 -12 10 -19 10 -27 2
-15 -15 -38 -16 -38 -2 0 5 5 9 11 7 6 -1 14 5 16 13 4 12 3 12 -5 2 -5 -8
-12 -13 -16 -13 -19 3 -26 0 -23 -10 1 -6 -4 -14 -11 -16 -8 -3 -10 1 -6 11 7
18 -11 22 -21 5 -4 -6 -12 -8 -19 -6 -6 3 -20 -1 -31 -9 -10 -8 -13 -14 -6
-14 7 0 9 -5 5 -11 -4 -8 -9 -7 -15 2 -5 8 -9 12 -10 9 -7 -42 -11 -55 -19
-69 -8 -12 -9 -9 -4 14 5 27 4 28 -9 13 -18 -23 -28 -23 -21 -1 5 17 5 17 -9
0 -19 -23 -30 -22 -15 3 9 14 19 18 33 13 18 -5 19 -4 5 12 -8 11 -10 16 -3
12 6 -4 14 -3 18 3 4 6 10 8 15 5 5 -3 11 -1 15 4 14 23 116 72 137 67 13 -3
17 -3 11 0 -16 7 -17 24 -2 24 6 0 31 14 56 30 24 17 46 30 49 30 3 0 10 4 17
10 7 5 46 36 87 67 230 174 413 352 545 531 215 290 338 580 372 876 10 79 10
442 1 526 -27 241 -92 453 -221 720 -141 292 -341 505 -592 630 -120 60 -192
82 -361 114 -71 14 -160 35 -198 46 l-70 22 25 19 c121 97 208 143 289 152 59
8 58 7 35 17 -29 12 -103 12 -149 -1 -62 -17 -134 -53 -214 -107 l-72 -48 -68
17 c-118 30 -291 55 -416 61 -26 1 -50 7 -51 12 -2 6 -6 47 -9 91 -3 44 -12
118 -21 165 -8 47 -17 103 -20 125 -6 52 -17 125 -21 150 -2 11 -7 49 -10 85
-6 72 -10 82 -15 48z m968 -4473 c0 -8 -4 -12 -9 -9 -5 3 -6 10 -3 15 9 13 12
11 12 -6z m109 0 c6 -14 8 -13 19 2 11 15 13 15 25 -6 9 -17 15 -20 23 -12 16
16 23 14 23 -8 0 -20 -15 -22 -37 -5 -8 6 -26 10 -41 9 -15 -1 -26 3 -25 9 1
6 -4 10 -11 8 -8 -1 -11 2 -7 8 9 15 25 12 31 -5z m-2309 -14 c7 7 13 10 14 8
7 -37 6 -40 -10 -34 -10 3 -29 -3 -43 -14 -27 -21 -46 -17 -27 6 9 10 8 13 -2
13 -8 1 -3 7 11 15 15 8 29 10 34 5 6 -6 15 -5 23 1z m2033 -25 c0 -2 -8 -10
-17 -17 -16 -13 -17 -12 -4 4 13 16 21 21 21 13z m481 -29 c1 -7 1 -15 0 -19
0 -4 7 -4 17 -1 9 3 14 3 10 -2 -10 -10 11 -37 22 -30 5 3 12 0 16 -6 4 -8 3
-9 -4 -5 -7 4 -12 2 -12 -4 0 -7 -7 -9 -16 -6 -10 4 -13 2 -8 -6 4 -6 3 -8 -3
-5 -5 3 -10 -1 -10 -9 0 -10 4 -11 11 -4 15 15 30 12 17 -3 -8 -10 -7 -14 4
-14 8 0 11 5 8 10 -4 6 -1 7 8 2 12 -8 12 -6 0 8 -8 10 -9 17 -3 17 18 0 25
-20 12 -35 -12 -15 -44 -12 -66 6 -10 8 -11 15 -4 24 8 9 8 15 0 20 -6 3 -8
11 -4 16 6 11 -15 41 -25 35 -3 -2 -7 7 -7 20 -2 20 1 22 17 13 10 -5 20 -15
20 -22z m-2706 14 c3 -5 1 -12 -5 -16 -5 -3 -10 1 -10 9 0 18 6 21 15 7z m86
-4 c-6 -8 -8 -16 -5 -20 3 -3 -1 -4 -10 -3 -17 2 -23 21 -7 21 5 0 13 3 17 8
13 12 17 8 5 -6z m366 -20 c-2 -7 -9 -13 -15 -13 -7 -1 -17 -2 -23 -3 -5 0 -7
-5 -4 -11 4 -6 -1 -7 -11 -3 -14 5 -14 7 5 18 12 6 18 15 14 20 -4 5 1 3 11
-5 18 -14 19 -13 13 3 -4 11 -3 16 4 12 5 -4 8 -12 6 -18z m2283 13 c0 -5 -4
-10 -10 -10 -5 0 -10 5 -10 10 0 6 5 10 10 10 6 0 10 -4 10 -10z m-402 -11
c-2 -6 -8 -10 -13 -9 -6 1 -13 -9 -17 -22 -7 -22 -7 -22 -5 2 1 14 8 24 15 23
6 -2 12 2 12 7 0 6 3 10 6 10 3 0 4 -5 2 -11z m-1958 -9 c0 -5 -4 -10 -10 -10
-5 0 -10 5 -10 10 0 6 5 10 10 10 6 0 10 -4 10 -10z m112 -12 c-14 -14 -44
-20 -36 -7 3 5 10 7 15 4 5 -4 12 1 15 10 4 9 9 13 12 10 3 -3 0 -11 -6 -17z
m1726 13 c11 -7 10 -9 -3 -14 -11 -5 -14 -3 -9 5 5 8 2 9 -10 5 -10 -4 -15 -3
-11 3 7 12 16 12 33 1z m-2193 -33 c-1 -18 1 -37 4 -43 9 -17 8 -55 -1 -55 -5
0 -7 -4 -4 -8 2 -4 0 -14 -6 -22 -8 -13 -9 -13 -5 0 3 9 -1 24 -9 35 -19 26
-17 38 4 26 14 -7 19 -6 19 4 0 7 -6 11 -14 8 -14 -6 -14 22 0 45 5 7 4 12 -2
12 -10 0 -15 -13 -13 -31 1 -3 -12 -6 -28 -6 -17 0 -26 5 -23 10 4 6 1 7 -7 2
-10 -6 -9 -11 5 -22 11 -7 22 -13 27 -13 4 0 8 -5 8 -11 0 -5 -5 -7 -12 -3 -7
4 -8 3 -4 -5 4 -6 13 -8 19 -5 9 5 9 4 1 -5 -14 -15 -44 -4 -38 14 10 24 -18
28 -47 6 -44 -32 -35 -7 10 28 21 17 45 29 53 26 8 -3 24 6 36 20 12 14 23 25
25 25 1 0 2 -15 2 -32z m2085 -3 c0 -5 -5 -3 -10 5 -5 8 -10 20 -10 25 0 6 5
3 10 -5 5 -8 10 -19 10 -25z m64 20 c3 -8 1 -15 -4 -15 -6 0 -10 7 -10 15 0 8
2 15 4 15 2 0 6 -7 10 -15z m210 9 c15 -6 15 -8 -1 -20 -25 -19 -41 -17 -17 2
19 15 18 15 -4 11 -12 -3 -20 -1 -16 4 6 11 16 11 38 3z m-1847 -27 c1 -11 1
-18 0 -16 -2 2 -8 11 -15 20 -9 12 -9 16 1 16 7 0 14 -9 14 -20z m1723 3 c-24
-15 -36 -11 -14 4 10 8 21 12 24 10 2 -3 -2 -9 -10 -14z m-1920 -10 c0 -5 -7
-6 -17 -3 -10 4 -14 2 -9 -5 3 -6 -3 -16 -14 -22 -13 -7 -20 -7 -20 0 0 5 7
10 15 10 8 0 14 3 14 8 -3 16 2 22 16 22 8 0 15 -4 15 -10z m66 -2 c4 -7 3 -8
-4 -4 -7 4 -12 2 -12 -5 0 -7 -3 -10 -6 -6 -6 5 3 27 11 27 2 0 7 -5 11 -12z
m35 -20 c-10 -11 -11 -9 -5 6 6 15 4 17 -6 11 -9 -6 -11 -4 -5 4 5 9 10 10 18
2 8 -8 7 -14 -2 -23z m53 20 c-5 -7 -2 -9 8 -5 12 4 14 1 11 -14 -5 -18 -6
-19 -18 -2 -12 16 -11 33 1 33 3 0 2 -5 -2 -12z m128 1 c2 -2 1 -3 -1 -2 -2 1
-11 -7 -21 -19 -13 -17 -17 -18 -17 -5 0 9 5 13 10 10 6 -4 8 0 4 9 -3 10 -1
15 8 14 8 -1 16 -4 17 -7z m1718 7 c0 -3 -4 -8 -10 -11 -5 -3 -10 -1 -10 4 0
6 5 11 10 11 6 0 10 -2 10 -4z m70 0 c0 -2 -7 -7 -16 -10 -8 -3 -12 -2 -9 4 6
10 25 14 25 6z m-2046 -21 c3 -8 1 -15 -4 -15 -6 0 -10 7 -10 15 0 8 2 15 4
15 2 0 6 -7 10 -15z m-264 -5 c0 -5 -4 -10 -10 -10 -5 0 -10 5 -10 10 0 6 5
10 10 10 6 0 10 -4 10 -10z m597 -7 c0 -9 -4 -10 -14 -2 -7 6 -13 12 -13 14 0
1 6 2 13 2 8 0 14 -6 14 -14z m1360 10 c-4 -3 -1 -13 6 -22 11 -14 10 -14 -5
-2 -21 15 -23 31 -6 31 6 0 8 -3 5 -7z m303 3 c0 -3 -4 -8 -10 -11 -5 -3 -10
-1 -10 4 0 6 5 11 10 11 6 0 10 -2 10 -4z m465 -6 c3 -5 1 -10 -4 -10 -6 0
-11 5 -11 10 0 6 2 10 4 10 3 0 8 -4 11 -10z m-884 -17 c13 -16 12 -17 -3 -4
-17 13 -22 21 -14 21 2 0 10 -8 17 -17z m439 7 c-13 -9 -13 -11 0 -20 9 -6 10
-10 3 -10 -6 0 -15 5 -18 10 -8 13 3 30 18 30 7 0 6 -4 -3 -10z m-2395 -10 c3
-6 -1 -7 -9 -4 -18 7 -21 14 -7 14 6 0 13 -4 16 -10z m435 0 c0 -5 -4 -10 -10
-10 -5 0 -10 5 -10 10 0 6 5 10 10 10 6 0 10 -4 10 -10z m206 -9 c0 -16 -3
-17 -14 -9 -12 10 -7 19 13 28 1 0 1 -9 1 -19z m44 14 c0 -2 -6 -8 -13 -14
-10 -8 -14 -7 -14 2 0 8 6 14 14 14 7 0 13 -1 13 -2z m65 -15 c-20 -22 -35
-26 -35 -9 0 5 4 8 9 5 5 -3 14 1 21 9 7 8 15 15 18 15 3 0 -3 -9 -13 -20z
m62 13 c-4 -3 0 -14 9 -24 10 -11 12 -19 4 -24 -6 -4 -9 -1 -8 7 2 7 -2 12 -9
11 -6 -1 -10 5 -8 15 5 23 4 22 12 22 3 0 3 -3 0 -7z m1188 -3 c-3 -5 -12 -10
-18 -10 -7 0 -6 4 3 10 19 12 23 12 15 0z m320 -19 c-6 -5 -25 10 -25 20 0 5
6 4 14 -3 8 -7 12 -15 11 -17z m-381 0 c12 -13 14 -21 6 -26 -6 -3 -10 -3 -9
2 3 20 -2 27 -11 13 -7 -12 -9 -10 -7 8 2 27 0 26 21 3z m430 3 c3 -8 2 -12
-4 -9 -6 3 -10 1 -10 -6 0 -7 -2 -10 -5 -7 -5 5 4 38 10 38 2 0 6 -7 9 -16z
m-1976 -8 c-7 -8 -15 -12 -17 -11 -5 6 10 25 20 25 5 0 4 -6 -3 -14z m75 -1
c-3 -9 -8 -14 -10 -11 -3 3 -2 9 2 15 9 16 15 13 8 -4z m412 5 c3 -6 -1 -7 -9
-4 -18 7 -21 14 -7 14 6 0 13 -4 16 -10z m30 1 c3 -5 2 -12 -3 -15 -5 -3 -9 1
-9 9 0 17 3 19 12 6z m915 5 c0 -2 -8 -10 -17 -17 -16 -13 -17 -12 -4 4 13 16
21 21 21 13z m413 -11 c-3 -9 -8 -14 -10 -11 -3 3 -2 9 2 15 9 16 15 13 8 -4z
m-228 -4 c3 -5 0 -13 -6 -17 -7 -4 -9 -3 -5 4 3 5 0 13 -6 15 -9 4 -10 6 -1 6
6 1 14 -3 18 -8z m-1335 -11 c0 -5 -4 -10 -10 -10 -5 0 -10 5 -10 10 0 6 5 10
10 10 6 0 10 -4 10 -10z m193 -17 c8 -16 12 -33 10 -40 -3 -9 2 -9 21 0 13 6
22 15 19 20 -3 5 4 3 16 -5 22 -14 28 -28 11 -28 -5 0 -10 6 -10 13 -1 6 -8
-1 -16 -16 -14 -26 -17 -27 -33 -13 -14 13 -20 13 -31 3 -10 -10 -11 -9 -5 2
6 10 2 12 -14 6 -13 -4 -21 -2 -21 5 0 6 -5 8 -10 5 -6 -4 -8 -10 -5 -15 11
-19 -16 -20 -39 -2 -22 16 -22 19 -8 29 14 9 15 12 3 27 -7 9 -10 16 -6 16 4
0 14 -9 24 -21 l16 -20 30 22 c26 20 27 20 13 3 -25 -29 -22 -41 4 -18 12 10
18 13 14 7 -4 -8 -1 -13 9 -13 14 0 14 3 0 30 -9 17 -13 30 -11 30 3 0 12 -12
19 -27z m167 22 c0 -7 -30 -13 -34 -7 -3 4 4 9 15 9 10 1 19 0 19 -2z m713
-15 c9 -11 13 -20 7 -20 -5 0 -14 9 -20 20 -6 11 -9 20 -8 20 2 0 11 -9 21
-20z m113 -9 c-9 -14 -26 -14 -26 0 0 5 5 7 12 3 8 -5 9 -1 4 12 -5 14 -4 16
5 7 6 -6 8 -16 5 -22z m-1056 4 c0 -8 -4 -15 -10 -15 -5 0 -7 7 -4 15 4 8 8
15 10 15 2 0 4 -7 4 -15z m140 -7 c0 -6 -6 -5 -15 2 -8 7 -15 14 -15 16 0 2 7
1 15 -2 8 -4 15 -11 15 -16z m194 1 c-8 -14 -21 -11 -21 5 0 8 6 12 14 9 7 -3
10 -9 7 -14z m516 -9 c0 -6 -9 -2 -20 7 -11 10 -20 19 -20 21 0 1 9 -2 20 -8
11 -6 20 -15 20 -20z m55 11 c-8 -14 -25 -14 -25 0 0 5 5 7 10 4 6 -3 10 -1
10 6 0 7 3 10 6 6 3 -3 3 -10 -1 -16z m-808 -13 c-3 -8 -6 -5 -6 6 -1 11 2 17
5 13 3 -3 4 -12 1 -19z m93 7 c0 -8 -2 -15 -4 -15 -2 0 -6 7 -10 15 -3 8 -1
15 4 15 6 0 10 -7 10 -15z m50 5 c0 -5 -5 -10 -11 -10 -5 0 -7 5 -4 10 3 6 8
10 11 10 2 0 4 -4 4 -10z m37 -12 c-3 -8 -6 -5 -6 6 -1 11 2 17 5 13 3 -3 4
-12 1 -19z m98 12 c-9 -14 8 -12 24 3 11 9 10 7 0 -10 -8 -13 -17 -23 -21 -23
-5 0 -8 -4 -8 -8 0 -12 48 -13 56 0 5 7 2 9 -9 5 -11 -4 -14 -2 -10 9 4 11 9
12 19 3 11 -9 18 -8 29 1 8 6 19 9 26 5 8 -6 7 -10 -2 -16 -16 -10 -19 -27 -7
-51 7 -14 4 -16 -13 -13 -12 3 -30 12 -41 21 -14 13 -21 15 -30 6 -9 -9 -16
-8 -30 5 -17 15 -20 15 -43 -7 -23 -22 -31 -18 -26 13 2 13 -11 7 -42 -19
l-31 -26 -15 21 c-16 20 -17 20 -41 4 -14 -9 -22 -13 -18 -8 4 4 0 14 -10 22
-9 8 -11 11 -3 7 9 -4 19 0 28 12 12 16 16 17 34 6 19 -12 20 -11 14 10 -4 16
-3 19 3 9 7 -10 14 -11 31 -2 17 9 20 9 15 -3 -4 -10 0 -14 12 -12 10 2 20 8
22 15 3 9 7 9 18 0 11 -9 18 -9 29 1 10 9 15 9 15 1 0 -6 -6 -11 -12 -11 -9 0
-8 -3 2 -10 18 -11 23 -7 26 23 3 27 3 27 10 27 3 0 2 -4 -1 -10z m75 0 c0 -5
-5 -10 -11 -10 -5 0 -7 5 -4 10 3 6 8 10 11 10 2 0 4 -4 4 -10z m115 0 c3 -5
1 -10 -4 -10 -6 0 -11 5 -11 10 0 6 2 10 4 10 3 0 8 -4 11 -10z m59 -1 c3 -3
-4 -5 -14 -6 -11 -1 -22 2 -24 6 -5 8 30 8 38 0z m106 -3 c-7 -7 -13 -7 -20 0
-6 6 -3 10 10 10 13 0 16 -4 10 -10z m44 2 c-3 -4 -9 -8 -15 -8 -5 0 -9 4 -9
8 0 5 7 9 15 9 8 0 12 -4 9 -9z m31 2 c3 -5 1 -10 -4 -10 -6 0 -11 5 -11 10 0
6 2 10 4 10 3 0 8 -4 11 -10z m192 -12 c-3 -8 -6 -5 -6 6 -1 11 2 17 5 13 3
-3 4 -12 1 -19z m263 12 c0 -5 -4 -10 -10 -10 -5 0 -10 5 -10 10 0 6 5 10 10
10 6 0 10 -4 10 -10z m-1320 -15 c7 -9 8 -15 2 -15 -5 0 -12 7 -16 15 -3 8 -4
15 -2 15 2 0 9 -7 16 -15z m225 5 c3 -5 1 -10 -4 -10 -6 0 -11 5 -11 10 0 6 2
10 4 10 3 0 8 -4 11 -10z m1668 -2 c-4 -7 -8 -16 -8 -20 0 -14 -15 -21 -15 -7
0 8 5 20 12 27 16 16 21 15 11 0z m-966 -32 c-16 -13 -16 -14 -1 -20 13 -5 14
-10 6 -18 -19 -19 -44 9 -30 32 7 10 16 16 22 13 6 -4 7 1 2 13 -6 16 -5 17 6
6 11 -11 10 -16 -5 -26z m107 19 c-4 -8 -11 -12 -16 -9 -6 4 -5 10 3 15 19 12
19 11 13 -6z m191 -25 c-3 -5 -12 -7 -20 -4 -11 5 -12 10 -2 25 10 16 13 16
20 4 4 -8 5 -19 2 -25z m-1495 20 c0 -5 -4 -10 -10 -10 -5 0 -10 5 -10 10 0 6
5 10 10 10 6 0 10 -4 10 -10z m960 0 c0 -5 -4 -10 -10 -10 -5 0 -10 5 -10 10
0 6 5 10 10 10 6 0 10 -4 10 -10z m1055 -4 c11 -8 26 -11 35 -8 8 3 12 2 9 -2
-11 -12 -51 -16 -68 -6 -13 8 -14 9 -1 10 13 0 13 1 0 10 -8 5 -10 10 -4 10 5
0 19 -6 29 -14z m73 -11 c-3 -3 -9 2 -12 12 -6 14 -5 15 5 6 7 -7 10 -15 7
-18z m176 16 c3 -5 0 -14 -8 -20 -10 -8 -16 -8 -25 3 -9 11 -9 15 1 19 20 8
26 8 32 -2z m-2456 -21 c14 -23 10 -25 -19 -9 -11 5 -17 14 -14 20 9 14 19 11
33 -11z m2117 1 c3 -5 2 -12 -3 -15 -5 -3 -9 1 -9 9 0 17 3 19 12 6z m-1990
-19 c-4 -12 -3 -13 10 -2 16 13 20 3 7 -17 -6 -10 -13 -9 -30 3 -24 17 -23 31
3 31 10 0 14 -6 10 -15z m1090 -3 c6 1 5 -3 -2 -10 -20 -20 -67 -20 -81 1 -9
16 -9 18 2 14 8 -3 17 -1 21 5 4 8 13 7 28 -1 12 -7 27 -11 32 -9z m765 6 c-7
-8 -16 -12 -21 -9 -16 9 -10 20 12 21 17 2 18 -1 9 -12z m-400 -15 c7 -11 10
-12 10 -2 0 7 5 10 11 6 8 -5 6 -10 -5 -16 -12 -7 -23 -5 -35 6 -10 9 -20 13
-23 10 -3 -3 -9 -1 -12 4 -3 5 6 8 20 8 14 -1 29 -8 34 -16z m304 8 c-3 -4
-12 -4 -21 -1 -10 4 -14 2 -9 -5 3 -6 2 -13 -3 -16 -5 -3 -11 1 -14 8 -3 8 -1
17 6 19 18 7 46 4 41 -5z"/>
<path d="M1460 520 c-12 -7 -10 -9 7 -7 12 0 19 5 17 9 -6 10 -6 10 -24 -2z"/>
<path d="M4000 481 c0 -6 4 -13 10 -16 6 -3 7 1 4 9 -7 18 -14 21 -14 7z"/>
<path d="M4025 430 c-3 -5 -5 -10 -3 -11 33 -8 38 -7 27 7 -14 17 -16 17 -24
4z"/>
<path d="M2055 280 c-6 -10 23 -35 32 -26 3 3 0 6 -7 6 -10 0 -8 4 4 13 16 12
16 13 -3 14 -11 1 -23 -2 -26 -7z"/>
<path d="M2185 271 c-3 -5 0 -13 6 -17 7 -4 9 -3 5 4 -3 5 0 13 6 15 9 4 10 6
1 6 -6 1 -14 -3 -18 -8z"/>
<path d="M2548 287 c-23 -18 -26 -39 -7 -42 11 -2 16 3 14 14 -1 9 2 22 8 29
12 15 7 15 -15 -1z"/>
<path d="M2320 275 c-10 -12 -16 -13 -27 -3 -11 9 -18 7 -31 -7 -16 -18 -16
-18 1 -6 15 12 21 11 39 -5 12 -11 18 -14 15 -8 -4 7 0 15 9 18 25 10 27 7 13
-11 -11 -15 -10 -14 9 1 12 11 22 21 22 24 0 3 -3 2 -7 -1 -3 -4 -12 -2 -18 3
-9 7 -16 6 -25 -5z"/>
<path d="M2390 280 c0 -5 6 -10 13 -10 8 0 7 -4 -3 -10 -8 -5 -10 -10 -4 -10
6 0 18 8 25 17 10 11 10 14 2 9 -7 -4 -13 -2 -13 3 0 6 -4 11 -10 11 -5 0 -10
-4 -10 -10z"/>
<path d="M2466 258 c3 -5 10 -6 15 -3 13 9 11 12 -6 12 -8 0 -12 -4 -9 -9z"/>
<path d="M2947 249 c7 -7 15 -10 18 -7 3 3 -2 9 -12 12 -14 6 -15 5 -6 -5z"/>
<path d="M2734 249 c-3 -6 -3 -13 0 -16 3 -4 6 -1 6 7 0 10 3 10 15 0 9 -7 15
-8 15 -2 0 14 -28 23 -36 11z"/>
<path d="M3895 671 c-3 -5 -2 -12 3 -15 5 -3 9 1 9 9 0 17 -3 19 -12 6z"/>
<path d="M3825 639 c-3 -4 2 -6 10 -5 21 3 28 13 10 13 -9 0 -18 -4 -20 -8z"/>
<path d="M1373 609 c-2 -23 3 -25 10 -4 4 8 3 16 -1 19 -4 3 -9 -4 -9 -15z"/>
<path d="M3962 618 c-15 -15 -16 -28 -2 -28 6 0 9 6 8 13 -2 6 3 11 10 9 8 -1
11 2 7 8 -8 13 -8 13 -23 -2z"/>
<path d="M3857 599 c4 -13 8 -18 11 -10 2 7 -1 18 -6 23 -8 8 -9 4 -5 -13z"/>
<path d="M4069 603 c-13 -16 -12 -17 4 -4 9 7 17 15 17 17 0 8 -8 3 -21 -13z"/>
<path d="M3885 600 c-3 -6 1 -7 9 -4 18 7 21 14 7 14 -6 0 -13 -4 -16 -10z"/>
<path d="M1394 592 c3 -5 0 -13 -6 -15 -9 -4 -10 -6 -1 -6 17 -1 25 16 12 25
-7 4 -9 3 -5 -4z"/>
<path d="M3720 590 c-8 -5 -10 -10 -5 -10 6 0 17 5 25 10 8 5 11 10 5 10 -5 0
-17 -5 -25 -10z"/>
<path d="M4156 587 c3 -10 9 -15 12 -12 3 3 0 11 -7 18 -10 9 -11 8 -5 -6z"/>
<path d="M1353 575 c0 -8 4 -12 9 -9 5 3 6 10 3 15 -9 13 -12 11 -12 -6z"/>
<path d="M1460 586 c0 -2 7 -7 16 -10 8 -3 12 -2 9 4 -6 10 -25 14 -25 6z"/>
<path d="M3977 568 c2 -5 13 -8 24 -8 10 0 18 -5 17 -12 -2 -6 5 -14 15 -16 9
-2 17 1 17 7 0 6 -7 8 -15 5 -10 -4 -13 0 -11 13 3 14 -2 18 -24 18 -15 0 -26
-3 -23 -7z"/>
<path d="M4059 568 c15 -21 31 -23 31 -6 0 6 -3 8 -7 5 -3 -4 -13 -1 -22 6
-14 11 -14 10 -2 -5z"/>
<path d="M1210 566 c0 -2 7 -7 16 -10 8 -3 12 -2 9 4 -6 10 -25 14 -25 6z"/>
<path d="M1445 560 c-3 -5 -2 -10 4 -10 5 0 13 5 16 10 3 6 2 10 -4 10 -5 0
-13 -4 -16 -10z"/>
<path d="M1333 555 c4 -5 -2 -14 -14 -20 -20 -11 -20 -12 -3 -19 10 -4 15 -4
11 0 -4 4 1 12 10 19 13 10 14 13 2 20 -8 5 -10 4 -6 0z"/>
<path d="M1563 538 c-14 -18 -13 -52 1 -38 13 13 27 13 24 -1 -2 -6 4 -14 12
-16 12 -4 12 -3 2 5 -11 7 -11 10 2 15 9 4 24 3 33 0 15 -6 16 -5 3 9 -8 9
-18 14 -22 12 -3 -2 -13 3 -21 11 -19 18 -22 18 -34 3z m42 -27 c-3 -2 -11 2
-20 9 -12 10 -15 10 -15 0 0 -8 -3 -11 -6 -7 -14 14 7 26 26 15 11 -7 17 -14
15 -17z"/>
<path d="M1233 525 c0 -8 4 -12 9 -9 5 3 6 10 3 15 -9 13 -12 11 -12 -6z"/>
<path d="M1260 531 c0 -10 19 -25 25 -20 1 2 -3 10 -11 17 -8 7 -14 8 -14 3z"/>
<path d="M1355 530 c-3 -5 -1 -10 4 -10 6 0 11 5 11 10 0 6 -2 10 -4 10 -3 0
-8 -4 -11 -10z"/>
<path d="M4061 529 c0 -8 13 -31 30 -50 l32 -34 -19 33 c-10 17 -22 32 -25 32
-4 0 -10 8 -12 18 -4 13 -5 14 -6 1z"/>
<path d="M1130 519 c0 -5 5 -7 10 -4 6 3 10 8 10 11 0 2 -4 4 -10 4 -5 0 -10
-5 -10 -11z"/>
<path d="M3595 521 c-3 -5 -2 -12 3 -15 5 -3 9 1 9 9 0 17 -3 19 -12 6z"/>
<path d="M3674 514 c3 -9 6 -18 6 -20 0 -3 5 -2 12 2 18 11 58 13 58 3 0 -6 5
-7 11 -4 15 10 3 18 -31 20 -16 1 -33 4 -36 8 -13 13 -26 7 -20 -9z"/>
<path d="M4100 519 c0 -5 5 -7 10 -4 6 3 10 8 10 11 0 2 -4 4 -10 4 -5 0 -10
-5 -10 -11z"/>
<path d="M4196 522 c-3 -5 1 -9 9 -9 8 0 12 4 9 9 -3 4 -7 8 -9 8 -2 0 -6 -4
-9 -8z"/>
<path d="M1244 498 c-4 -7 -3 -8 4 -4 7 4 12 3 12 -3 0 -5 -6 -11 -12 -14 -7
-3 -3 -4 9 -4 17 1 20 4 12 19 -11 21 -15 22 -25 6z"/>
<path d="M3830 500 c0 -4 7 -13 15 -20 12 -10 15 -10 15 1 1 8 10 -3 21 -24
11 -21 17 -42 14 -47 -3 -6 -2 -10 4 -10 15 0 23 18 11 25 -6 4 -8 16 -4 27 4
13 2 18 -4 14 -5 -3 -17 5 -25 17 -14 22 -47 33 -47 17z"/>
<path d="M4177 479 c4 -13 8 -18 11 -10 2 7 -1 18 -6 23 -8 8 -9 4 -5 -13z"/>
<path d="M4336 487 c3 -10 9 -15 12 -12 3 3 0 11 -7 18 -10 9 -11 8 -5 -6z"/>
<path d="M1160 480 c-9 -6 -10 -10 -3 -10 6 0 15 5 18 10 8 12 4 12 -15 0z"/>
<path d="M1215 470 c6 -10 4 -12 -9 -7 -11 5 -15 3 -10 -5 5 -7 2 -9 -8 -5
-11 4 -15 0 -13 -11 1 -9 -5 -20 -14 -24 -12 -6 -12 -7 4 -5 11 2 19 9 18 15
-2 7 1 12 5 12 5 0 16 6 27 13 14 11 15 16 5 22 -9 6 -11 4 -5 -5z"/>
<path d="M1479 460 c-20 -11 -47 -17 -59 -15 -21 4 -21 3 -6 -21 13 -19 14
-29 5 -45 -6 -11 -13 -18 -16 -15 -8 7 -44 -40 -47 -62 -2 -9 -13 -22 -25 -28
-29 -15 -40 -27 -16 -18 11 4 28 14 38 22 10 9 17 11 17 4 0 -6 -4 -14 -10
-17 -5 -3 -10 -12 -9 -18 0 -9 2 -8 6 1 2 6 8 10 12 8 11 -7 10 27 -2 42 -16
20 7 14 32 -9 12 -12 20 -24 16 -27 -3 -4 -11 0 -16 8 -9 12 -10 12 -5 -2 3
-11 -2 -21 -12 -27 -15 -9 -14 -10 5 -8 12 0 20 3 18 6 -3 2 5 11 16 19 18 12
23 13 31 1 8 -12 9 -11 5 1 -2 8 -10 15 -18 15 -17 0 -30 16 -22 28 3 5 8 5
12 1 3 -5 15 -14 26 -20 11 -7 19 -20 17 -30 -2 -14 -1 -16 6 -5 11 15 27 -3
17 -19 -3 -6 1 -7 9 -4 20 8 20 9 0 28 -14 14 -13 18 12 41 22 21 30 23 48 13
27 -15 48 -19 40 -7 -3 5 0 9 7 9 19 0 1 13 -22 17 -13 2 -18 -1 -13 -9 5 -7
3 -8 -5 -4 -9 6 -8 13 5 27 15 17 15 19 0 25 -17 7 -46 -11 -46 -29 0 -5 10
-2 23 9 l22 19 -19 -22 c-10 -13 -23 -20 -29 -16 -6 3 -7 1 -3 -5 4 -7 2 -12
-4 -12 -6 0 -9 8 -6 18 4 11 -1 25 -11 34 -28 23 -43 30 -43 19 0 -6 12 -17
28 -26 26 -15 26 -16 2 -9 -24 6 -24 6 -5 -9 23 -18 17 -27 -20 -31 -16 -2
-29 2 -32 11 -4 11 -8 12 -13 3 -4 -7 -7 -1 -7 14 0 15 4 23 10 19 6 -3 7 -1
3 5 -5 8 -1 10 10 5 11 -4 13 -8 6 -11 -7 -2 -12 -9 -12 -14 0 -6 3 -8 7 -5 3
4 12 2 19 -4 10 -8 12 -5 11 11 -1 12 -10 26 -19 31 -10 6 -16 14 -13 20 4 5
11 7 16 4 19 -13 8 13 -12 27 -21 14 -21 14 -1 14 11 0 18 -4 15 -9 -3 -5 0
-7 8 -5 8 3 13 10 12 16 -2 6 10 3 26 -6 l28 -16 -21 -18 c-11 -9 -16 -17 -10
-18 14 0 38 20 58 50 22 34 20 50 -4 22 -18 -21 -21 -22 -40 -9 -19 13 -19 15
-4 21 9 4 19 4 22 1 3 -3 0 -5 -7 -5 -7 0 -9 -5 -5 -11 4 -7 10 -7 16 -1 10
10 3 32 -10 32 -4 -1 -23 -10 -43 -20z m-80 -136 c-9 -11 -9 -14 1 -14 8 0 10
-3 7 -6 -4 -4 -13 -1 -22 6 -12 10 -13 16 -4 26 6 8 15 11 21 8 5 -3 4 -12 -3
-20z m100 -31 c-7 -10 -14 -19 -15 -21 -1 -1 -7 4 -14 13 -11 13 -10 14 3 10
8 -4 18 -2 22 4 3 6 9 11 12 11 3 0 -1 -8 -8 -17z"/>
<path d="M4137 463 c-4 -3 -7 -13 -7 -22 1 -13 3 -13 11 2 11 19 8 33 -4 20z"/>
<path d="M3928 452 c-20 -4 -23 -17 -8 -27 8 -5 7 -11 -1 -21 -8 -10 -8 -14 0
-14 6 0 11 5 11 12 0 9 3 9 12 0 15 -15 28 -15 28 -1 0 5 -4 7 -10 4 -16 -10
-12 6 7 29 10 12 14 18 9 14 -5 -4 -14 -4 -20 0 -6 5 -19 7 -28 4z m26 -23
c-3 -5 -10 -7 -15 -3 -5 3 -7 10 -3 15 3 5 10 7 15 3 5 -3 7 -10 3 -15z"/>
<path d="M4213 446 c0 -8 3 -15 6 -14 18 2 24 -3 13 -11 -11 -7 -11 -9 0 -14
20 -7 18 20 -2 38 -14 13 -17 13 -17 1z"/>
<path d="M1096 438 c3 -4 16 -7 29 -6 30 3 23 11 -9 13 -14 0 -22 -3 -20 -7z"/>
<path d="M4179 443 c-1 -5 -1 -11 0 -15 2 -12 -17 -10 -22 2 -3 6 -4 5 -3 -2
4 -19 29 -16 32 5 1 9 0 17 -2 17 -2 0 -5 -3 -5 -7z"/>
<path d="M1016 422 c-3 -5 1 -9 9 -9 8 0 12 4 9 9 -3 4 -7 8 -9 8 -2 0 -6 -4
-9 -8z"/>
<path d="M1473 414 c-8 -22 5 -30 23 -12 14 14 14 16 -1 21 -9 4 -18 1 -22 -9z"/>
<path d="M4286 422 c-3 -5 1 -9 9 -9 8 0 12 4 9 9 -3 4 -7 8 -9 8 -2 0 -6 -4
-9 -8z"/>
<path d="M1093 405 c0 -8 5 -11 10 -8 7 4 8 -1 3 -13 -4 -10 -4 -15 0 -11 4 4
13 -1 21 -11 10 -12 10 -9 -1 15 -18 36 -33 49 -33 28z"/>
<path d="M1354 406 c1 -8 5 -18 8 -22 4 -3 5 1 4 10 -1 8 -5 18 -8 22 -4 3 -5
-1 -4 -10z"/>
<path d="M4195 410 c-8 -13 3 -30 18 -30 8 0 7 3 -2 9 -7 5 -10 14 -7 20 4 6
5 11 2 11 -3 0 -8 -4 -11 -10z"/>
<path d="M1180 400 c-9 -6 -10 -10 -3 -10 6 0 15 5 18 10 8 12 4 12 -15 0z"/>
<path d="M3974 388 c-5 -13 -7 -26 -6 -30 1 -3 -10 -5 -23 -3 -15 1 -22 -2
-18 -8 4 -6 1 -7 -7 -2 -9 6 -11 4 -5 -5 6 -9 4 -11 -4 -6 -7 5 -22 0 -34 -11
l-22 -18 20 24 20 24 -22 -7 c-12 -4 -24 -2 -28 4 -8 13 -30 -3 -45 -30 -7
-12 -5 -17 8 -17 9 0 22 4 29 9 7 5 14 5 18 -2 4 -7 12 -7 26 0 10 6 19 8 19
4 0 -4 9 1 19 10 11 10 24 15 30 12 5 -4 12 -2 16 4 4 6 10 8 15 5 4 -3 13 1
19 9 9 10 8 15 -4 19 -8 4 -12 13 -9 22 3 8 4 15 1 15 -3 0 -9 -10 -13 -22z
m-118 -60 c5 -7 3 -8 -6 -3 -7 4 -16 2 -21 -6 -4 -7 -11 -10 -16 -6 -4 5 -1
12 7 17 20 13 27 12 36 -2z"/>
<path d="M3884 378 c-9 -15 12 -32 28 -22 7 5 18 9 23 9 6 0 11 4 13 10 3 13
-56 16 -64 3z"/>
<path d="M4149 377 c-8 -7 -18 -20 -22 -29 -3 -10 -12 -15 -21 -12 -18 7 -31
-12 -15 -22 8 -4 9 -3 5 4 -4 7 -2 12 3 12 11 0 15 -19 12 -50 -1 -11 2 -10
10 3 10 18 11 18 25 0 14 -17 14 -16 4 5 -6 12 -15 20 -21 17 -16 -11 -10 16
12 46 24 34 34 37 36 10 1 -14 -3 -18 -15 -14 -14 4 -14 3 -2 -5 19 -14 30 -6
26 20 -4 27 -16 31 -37 15z"/>
<path d="M4265 380 c-3 -6 1 -7 9 -4 18 7 21 14 7 14 -6 0 -13 -4 -16 -10z"/>
<path d="M926 362 c-3 -5 1 -9 9 -9 8 0 12 4 9 9 -3 4 -7 8 -9 8 -2 0 -6 -4
-9 -8z"/>
<path d="M1056 358 c3 -4 11 -5 19 -1 21 7 19 12 -4 10 -11 0 -18 -5 -15 -9z"/>
<path d="M1150 345 c0 -5 5 -17 10 -25 5 -8 10 -10 10 -5 0 6 -5 17 -10 25 -5
8 -10 11 -10 5z"/>
<path d="M4197 335 c-4 -8 -3 -16 1 -19 4 -3 9 4 9 15 2 23 -3 25 -10 4z"/>
<path d="M4286 338 c3 -5 10 -6 15 -3 13 9 11 12 -6 12 -8 0 -12 -4 -9 -9z"/>
<path d="M1080 326 c0 -2 8 -10 18 -17 15 -13 16 -12 3 4 -13 16 -21 21 -21
13z"/>
<path d="M4145 320 c3 -5 11 -10 16 -10 6 0 7 5 4 10 -3 6 -11 10 -16 10 -6 0
-7 -4 -4 -10z"/>
<path d="M1705 310 c-4 -6 -3 -16 3 -22 6 -6 12 -6 17 2 4 6 3 16 -3 22 -6 6
-12 6 -17 -2z"/>
<path d="M1170 290 c-6 -11 -8 -20 -6 -20 3 0 10 9 16 20 6 11 8 20 6 20 -3 0
-10 -9 -16 -20z"/>
<path d="M1645 300 c-3 -6 1 -7 9 -4 18 7 21 14 7 14 -6 0 -13 -4 -16 -10z"/>
<path d="M3413 281 c8 -9 12 -10 15 -2 2 6 8 9 13 5 5 -3 9 -1 9 4 0 6 -11 9
-24 8 -19 -1 -22 -4 -13 -15z"/>
<path d="M4349 283 c-13 -16 -12 -17 4 -4 16 13 21 21 13 21 -2 0 -10 -8 -17
-17z"/>
<path d="M1066 279 c4 -8 30 -6 38 2 3 3 -5 5 -19 5 -13 0 -22 -3 -19 -7z"/>
<path d="M1230 280 c0 -6 7 -10 15 -10 8 0 15 2 15 4 0 2 -7 6 -15 10 -8 3
-15 1 -15 -4z"/>
<path d="M1876 275 c-3 -10 -11 -13 -18 -8 -25 15 -38 12 -28 -7 5 -9 7 -19 5
-22 -3 -3 7 -10 22 -17 26 -10 27 -10 9 4 -11 8 -17 18 -13 22 4 3 15 -1 26
-11 18 -16 19 -16 16 14 -3 37 -10 47 -19 25z m11 -20 c0 -8 -4 -12 -9 -9 -5
3 -6 10 -3 15 9 13 12 11 12 -6z"/>
<path d="M1926 281 c-3 -5 1 -11 9 -14 9 -4 12 -1 8 9 -6 16 -10 17 -17 5z"/>
<path d="M1990 280 c0 -5 5 -10 10 -10 6 0 10 5 10 10 0 6 -4 10 -10 10 -5 0
-10 -4 -10 -10z"/>
<path d="M2790 281 c0 -6 4 -12 8 -15 5 -3 9 1 9 9 0 8 -4 15 -9 15 -4 0 -8
-4 -8 -9z"/>
<path d="M2843 283 c4 -6 2 -13 -5 -15 -7 -3 -8 -7 -2 -11 5 -3 16 -2 22 2 10
6 9 11 -4 22 -10 8 -15 9 -11 2z"/>
<path d="M3466 278 c3 -4 9 -8 15 -8 5 0 9 4 9 8 0 5 -7 9 -15 9 -8 0 -12 -4
-9 -9z"/>
<path d="M4176 282 c-3 -5 1 -9 9 -9 8 0 12 4 9 9 -3 4 -7 8 -9 8 -2 0 -6 -4
-9 -8z"/>
<path d="M4216 282 c-3 -4 4 -9 15 -9 23 -2 25 3 4 10 -8 4 -16 3 -19 -1z"/>
<path d="M3000 273 c0 -1 8 -7 18 -12 13 -7 19 -6 19 2 0 7 -9 13 -19 13 -10
0 -18 -1 -18 -3z"/>
<path d="M4070 270 c0 -6 7 -10 15 -10 8 0 15 2 15 4 0 2 -7 6 -15 10 -8 3
-15 1 -15 -4z"/>
<path d="M2601 257 c-6 -8 -8 -17 -4 -20 12 -13 22 -7 20 13 -2 24 -1 24 -16
7z"/>
<path d="M3960 255 c0 -5 5 -17 10 -25 5 -8 10 -10 10 -5 0 6 -5 17 -10 25 -5
8 -10 11 -10 5z"/>
<path d="M4176 247 c3 -10 9 -15 12 -12 3 3 0 11 -7 18 -10 9 -11 8 -5 -6z"/>
<path d="M1187 239 c7 -7 15 -10 18 -7 3 3 -2 9 -12 12 -14 6 -15 5 -6 -5z"/>
<path d="M1426 242 c-3 -4 4 -9 15 -9 23 -2 25 3 4 10 -8 4 -16 3 -19 -1z"/>
<path d="M2100 225 c-9 -11 -9 -15 -1 -15 6 0 11 4 11 10 0 5 7 7 15 3 14 -5
14 -7 0 -23 -13 -15 -14 -20 -3 -26 7 -4 10 -3 5 1 -4 5 0 16 9 26 14 16 14
18 -4 28 -15 8 -23 7 -32 -4z"/>
<path d="M3800 231 c0 -6 4 -13 10 -16 6 -3 7 1 4 9 -7 18 -14 21 -14 7z"/>
<path d="M3997 229 c7 -7 15 -10 18 -7 3 3 -2 9 -12 12 -14 6 -15 5 -6 -5z"/>
<path d="M1533 223 c4 -3 1 -13 -6 -22 -11 -14 -10 -14 5 -2 16 12 16 31 1 31
-4 0 -3 -3 0 -7z"/>
<path d="M1590 223 c0 -6 8 -17 18 -24 16 -13 16 -13 2 6 -8 11 -16 22 -17 24
-2 2 -3 0 -3 -6z"/>
<path d="M3596 213 c-6 -14 -5 -15 5 -6 7 7 10 15 7 18 -3 3 -9 -2 -12 -12z"/>
<path d="M3732 220 c2 -9 -4 -14 -14 -14 -10 1 -15 -2 -13 -6 3 -5 14 -8 24
-7 18 1 22 19 7 34 -4 4 -6 1 -4 -7z"/>
<path d="M3774 219 c-3 -6 -2 -15 4 -21 6 -6 12 -6 17 3 6 8 4 10 -5 4 -10 -6
-12 -4 -7 8 7 19 2 23 -9 6z"/>
<path d="M3870 220 c0 -5 5 -10 10 -10 6 0 10 5 10 10 0 6 -4 10 -10 10 -5 0
-10 -4 -10 -10z"/>
<path d="M4066 218 c3 -5 10 -6 15 -3 13 9 11 12 -6 12 -8 0 -12 -4 -9 -9z"/>
<path d="M1375 209 c-4 -6 -5 -12 -2 -15 2 -3 7 2 10 11 7 17 1 20 -8 4z"/>
<path d="M2355 210 c3 -5 8 -10 11 -10 2 0 4 5 4 10 0 6 -5 10 -11 10 -5 0 -7
-4 -4 -10z"/>
<path d="M2441 197 c-13 -21 -12 -21 5 -5 10 10 16 20 13 22 -3 3 -11 -5 -18
-17z"/>
<path d="M2606 211 c-17 -6 -17 -8 -4 -14 10 -3 19 0 22 9 3 8 4 14 3 13 -1 0
-11 -4 -21 -8z"/>
<path d="M2869 203 c-13 -16 -12 -17 4 -4 16 13 21 21 13 21 -2 0 -10 -8 -17
-17z"/>
<path d="M3007 207 c-3 -8 1 -14 8 -14 7 0 11 6 8 14 -6 16 -10 16 -16 0z"/>
<path d="M3071 204 c0 -11 3 -14 6 -6 3 7 2 16 -1 19 -3 4 -6 -2 -5 -13z"/>
<path d="M3351 212 c-1 -7 -5 -11 -10 -8 -11 7 -8 -20 3 -31 4 -4 6 -1 4 7 -1
8 2 14 9 15 6 0 15 4 20 9 4 5 3 6 -4 3 -6 -4 -14 -1 -16 5 -4 10 -6 10 -6 0z"/>
<path d="M3500 206 c7 -7 13 -7 20 0 6 6 3 10 -10 10 -13 0 -16 -4 -10 -10z"/>
<path d="M1475 200 c3 -5 8 -10 11 -10 2 0 4 5 4 10 0 6 -5 10 -11 10 -5 0 -7
-4 -4 -10z"/>
<path d="M1573 191 c0 -11 5 -18 9 -15 4 3 5 11 1 19 -7 21 -12 19 -10 -4z"/>
<path d="M2069 197 c6 -8 7 -18 3 -22 -4 -5 -1 -5 6 -1 10 6 10 11 1 22 -6 8
-14 14 -16 14 -3 0 0 -6 6 -13z"/>
<path d="M2377 195 c-4 -8 -3 -16 1 -19 4 -3 9 4 9 15 2 23 -3 25 -10 4z"/>
<path d="M2497 195 c-4 -8 -3 -16 1 -19 4 -3 9 4 9 15 2 23 -3 25 -10 4z"/>
<path d="M2690 202 c0 -4 10 -9 22 -9 18 -2 20 0 8 7 -18 12 -30 13 -30 2z"/>
<path d="M3216 194 c-5 -14 -4 -15 9 -4 17 14 19 20 6 20 -5 0 -12 -7 -15 -16z"/>
<path d="M3270 200 c0 -5 5 -10 11 -10 5 0 7 5 4 10 -3 6 -8 10 -11 10 -2 0
-4 -4 -4 -10z"/>
<path d="M3615 200 c-2 -3 5 -7 16 -7 10 -1 19 2 19 6 0 9 -29 10 -35 1z"/>
<path d="M3666 198 c3 -4 9 -8 15 -8 5 0 9 4 9 8 0 5 -7 9 -15 9 -8 0 -12 -4
-9 -9z"/>
<path d="M1975 191 c-3 -5 -2 -12 3 -15 5 -3 9 1 9 9 0 17 -3 19 -12 6z"/>
<path d="M2535 191 c-3 -5 -2 -12 3 -15 5 -3 9 1 9 9 0 17 -3 19 -12 6z"/>
<path d="M3393 185 c0 -8 4 -12 9 -9 5 3 6 10 3 15 -9 13 -12 11 -12 -6z"/>
<path d="M3853 185 c0 -8 4 -12 9 -9 5 3 6 10 3 15 -9 13 -12 11 -12 -6z"/>
<path d="M3895 191 c-3 -5 -2 -12 3 -15 5 -3 9 1 9 9 0 17 -3 19 -12 6z"/>
<path d="M3570 179 c0 -5 5 -7 10 -4 6 3 10 8 10 11 0 2 -4 4 -10 4 -5 0 -10
-5 -10 -11z"/>
<path d="M1696 153 c-6 -14 -5 -15 5 -6 7 7 10 15 7 18 -3 3 -9 -2 -12 -12z"/>
</g>
</svg>
